# xmcd
#
# Track frame offsets:
#	150
#	21903
#	41133
#	63247
#	84180
#	106312
#	125614
#	140383
#	162207
#	187929
#	206019
#
# Disc length: 3126 seconds
# Revision: 2
# Processed by: cddbd v1.5.2PL0 Copyright (c) Steve Scherf et al.
# Submitted via: dBpowerAMP V12.0
#
DISCID=8f0c340b
DTITLE=Garth Brooks - Blame It All On My Roots - Classic Rock
DYEAR=2013
DGENRE=Country
TTITLE0=Against the Wind
TTITLE1=Superstition
TTITLE2=Sweet Home Alabama
TTITLE3=Life In the Fast Lane
TTITLE4=Somebody To Love
TTITLE5=Bad Company
TTITLE6=Midnight Rider
TTITLE7=All Right Now
TTITLE8=Don't Let the Sun Go Down On Me
TTITLE9=Addicted To Love
TTITLE10=Goodnight Saigon
EXTD=
EXTT0=
EXTT1=
EXTT2=
EXTT3=
EXTT4=
EXTT5=
EXTT6=
EXTT7=
EXTT8=
EXTT9=
EXTT10=
PLAYORDER=
